<svg version="1.1" xmlns="http://www.w3.org/2000/svg" xmlns:xlink="http://www.w3.org/1999/xlink" width="512.000000pt" height="512.000000pt" viewBox="0,0,256,256"><g fill="#000000" fill-rule="nonzero" stroke="none" stroke-width="1" stroke-linecap="butt" stroke-linejoin="miter" stroke-miterlimit="10" stroke-dasharray="" stroke-dashoffset="0" font-family="none" font-weight="none" font-size="none" text-anchor="none" style="mix-blend-mode: normal"><g transform="translate(0,0.02009) scale(0.5,0.5)"><g transform="translate(0,512) scale(0.1,-0.1)"><path d="M1634,4931c-23,-10 -52,-34 -65,-52c-23,-33 -24,-41 -27,-236l-3,-203h1705h1706v184c0,196 -5,223 -48,270c-56,60 47,56 -1659,56c-1508,0 -1570,-1 -1609,-19zM1913,4768c53,-28 64,-92 22,-133c-21,-22 -33,-25 -100,-25c-67,0 -79,3 -100,25c-42,41 -32,105 20,133c27,15 131,15 158,0zM2361,4751c31,-31 36,-59 17,-94c-20,-38 -41,-46 -114,-47c-56,0 -77,4 -97,20c-31,25 -41,63 -25,98c18,37 53,52 126,52c57,0 67,-3 93,-29z"></path><path d="M1540,3815c0,-250 1,-455 3,-455c1,0 24,11 51,25c91,46 214,27 290,-43c16,-15 39,-49 52,-77c21,-43 24,-65 24,-162v-112l39,-61c52,-80 96,-187 115,-282c23,-110 21,-309 -2,-385c-48,-152 -179,-266 -339,-294l-63,-11v-82v-81l61,-12c34,-7 84,-25 111,-42l49,-31h1447h1447l39,23c25,14 48,39 63,66l23,44v1214v1213h-1705h-1705zM3981,3979c72,-34 134,-96 167,-168c23,-47 27,-70 27,-141c0,-71 -4,-94 -26,-140c-36,-77 -77,-121 -151,-161l-63,-34l-548,-3l-547,-3l-143,-86c-124,-75 -149,-87 -198,-91c-95,-7 -163,41 -188,134l-11,42l-88,4c-105,6 -166,31 -232,98c-74,73 -95,127 -95,240c0,84 3,101 27,146c37,70 72,110 124,140c93,55 61,53 1009,51l880,-2zM4508,2861c70,-38 120,-90 154,-160c19,-38 23,-63 23,-141c0,-78 -4,-103 -23,-141c-34,-70 -84,-122 -154,-159c-54,-29 -75,-35 -150,-38l-88,-4l-11,-41c-15,-57 -36,-84 -84,-112c-52,-31 -120,-33 -175,-5c-21,11 -91,51 -154,89l-116,70l-542,3l-543,3l-56,26c-236,111 -266,440 -55,586c94,64 52,62 1026,60l885,-2z"></path><path d="M2139,3817c-84,-44 -114,-148 -66,-231c37,-67 72,-80 225,-86c126,-5 135,-6 153,-29c14,-17 19,-39 19,-82c0,-32 5,-61 11,-64c5,-4 79,34 162,84l153,91h544h543l43,25c48,28 84,91 84,147c0,55 -39,118 -90,145l-43,23h-847h-847z"></path><path d="M2650,2707c-51,-27 -90,-90 -90,-147c0,-57 39,-120 90,-147l43,-23h542h542l152,-90c83,-50 156,-88 161,-85c6,3 10,32 10,64c0,43 5,65 19,82c18,23 27,24 153,29c148,6 179,16 220,72c18,26 23,46 23,98c0,79 -26,122 -89,151c-39,18 -84,19 -887,19h-846z"></path><path d="M625,3215c-24,-23 -25,-29 -25,-155v-131l-39,-52c-92,-123 -131,-249 -131,-421c0,-144 10,-176 73,-241c86,-88 72,-86 713,-83c510,3 552,4 592,22c53,23 124,101 140,154c16,54 15,232 -3,315c-17,80 -69,193 -119,259l-36,47v131c0,126 -1,132 -25,155c-16,17 -35,25 -57,25c-59,-1 -88,-40 -88,-119c0,-28 -2,-51 -5,-51c-3,0 -27,11 -54,24c-96,49 -161,60 -361,61c-201,0 -250,-8 -359,-56c-35,-16 -65,-29 -67,-29c-2,0 -4,23 -4,51c0,79 -29,118 -88,119c-22,0 -41,-8 -57,-25zM885,2805c46,-18 55,-46 55,-160c0,-112 -10,-142 -51,-159c-40,-17 -75,-10 -99,22c-17,21 -20,40 -20,136c0,130 14,161 78,175c1,1 18,-6 37,-14zM1598,2784c20,-23 22,-35 22,-139c0,-104 -2,-116 -22,-139c-35,-38 -86,-39 -123,-1c-24,23 -25,30 -25,138c0,100 3,118 20,140c34,43 89,43 128,1zM1337,2448c15,-14 23,-33 23,-55c0,-73 -36,-93 -165,-93c-106,0 -143,13 -161,56c-15,37 -11,58 19,92c19,20 29,22 141,22c109,0 122,-2 143,-22z"></path><path d="M850,1875v-85l343,2l342,3l3,83l3,82h-346h-345z"></path><path d="M615,1606c-47,-20 -93,-79 -100,-128c-3,-24 -5,-97 -3,-163l3,-120l77,-5c112,-7 157,-46 183,-158c43,-182 175,-311 354,-342c125,-23 258,18 355,110c63,59 112,146 128,225c22,112 74,158 186,165l77,5l3,130c3,144 -5,188 -45,236c-51,60 -41,59 -640,59c-430,-1 -554,-4 -578,-14zM1301,1342c41,-16 87,-61 117,-111c23,-39 27,-57 27,-121c-1,-88 -22,-138 -81,-190c-52,-46 -99,-63 -169,-63c-260,0 -350,337 -127,475c56,35 161,40 233,10z"></path><path d="M1135,1165c-53,-52 -14,-140 61,-138c110,3 109,163 -1,163c-25,0 -44,-8 -60,-25z"></path><path d="M288,1491c-92,-59 -118,-123 -118,-300c0,-181 27,-270 112,-367c66,-75 63,-93 63,322c0,206 -2,374 -6,374c-3,0 -26,-13 -51,-29z"></path><path d="M2045,1146c0,-425 -5,-406 79,-299c72,91 88,145 94,306c5,152 -5,210 -44,270c-21,32 -104,97 -123,97c-4,0 -6,-168 -6,-374z"></path><path d="M513,878c3,-84 12,-168 22,-203c50,-181 186,-345 355,-429c205,-101 402,-100 610,1c173,84 305,247 356,438c8,33 18,122 21,198l6,137h-49h-49l-14,-57c-20,-89 -74,-186 -145,-260c-74,-78 -144,-124 -248,-160c-100,-36 -249,-38 -353,-6c-197,62 -369,242 -408,428l-11,55h-49h-50z"></path></g></g></g></svg>