<svg version="1.1" xmlns="http://www.w3.org/2000/svg" xmlns:xlink="http://www.w3.org/1999/xlink" width="512.000000pt" height="512.000000pt" viewBox="0,0,256,256"><g fill="#000000" fill-rule="nonzero" stroke="none" stroke-width="1" stroke-linecap="butt" stroke-linejoin="miter" stroke-miterlimit="10" stroke-dasharray="" stroke-dashoffset="0" font-family="none" font-weight="none" font-size="none" text-anchor="none" style="mix-blend-mode: normal"><g transform="translate(0.08102,-0.0033) scale(0.5,0.5)"><g transform="translate(0,512) scale(0.1,-0.1)"><path d="M857,5109c-135,-32 -245,-162 -255,-303c-6,-79 13,-151 57,-217c36,-54 126,-125 166,-131c19,-3 20,-11 20,-227v-225l-70,-12c-194,-33 -368,-127 -512,-277c-128,-134 -205,-280 -242,-464c-62,-304 29,-609 249,-833c190,-194 401,-283 670,-283c153,0 262,24 394,87c260,123 439,339 515,622l16,61l185,-144c163,-128 185,-148 183,-171c-1,-15 -5,-55 -9,-90c-32,-301 332,-482 562,-280c232,204 84,590 -226,590c-63,0 -172,-31 -185,-53c-4,-5 -12,-9 -19,-9c-7,0 -118,82 -247,183l-234,183l-7,66c-13,139 -69,289 -152,412c-26,38 -45,73 -44,77c4,11 379,329 388,329c4,0 11,-17 15,-37c23,-127 124,-311 231,-423c162,-169 353,-265 584,-292c167,-20 334,10 498,87l92,44l182,-242c99,-133 185,-247 190,-254c6,-8 -7,-16 -44,-28c-269,-87 -502,-312 -592,-571c-45,-128 -59,-226 -53,-364c4,-78 13,-150 25,-193l20,-68l-171,-129l-171,-128l-50,72c-140,201 -356,341 -596,387c-104,19 -280,15 -383,-10c-361,-87 -636,-369 -707,-726c-6,-33 -14,-70 -16,-82l-4,-23h-218h-218l-23,54c-44,106 -154,188 -273,202c-211,25 -399,-163 -374,-374c30,-253 315,-384 527,-243c54,36 125,126 131,166c3,19 11,20 227,20h225l12,-70c31,-182 115,-346 248,-484c178,-184 386,-277 641,-288c95,-4 140,-1 215,15c334,69 600,307 710,633l25,76l275,-132c230,-111 274,-136 271,-151c-2,-11 -4,-57 -5,-104c-1,-73 3,-93 25,-140c48,-101 135,-169 247,-191c149,-31 303,49 371,191c22,46 26,69 26,140c0,71 -4,94 -26,141c-88,188 -327,257 -493,144l-35,-24l-315,152l-315,151l-6,76c-3,41 -13,109 -22,150c-8,41 -16,85 -17,97c-1,17 35,49 166,147l167,126l38,-58c82,-124 232,-256 368,-325c144,-72 346,-107 511,-87c107,13 230,48 309,88c196,98 375,288 455,483c57,138 64,179 64,364c0,157 -2,177 -28,260c-118,387 -447,646 -851,674l-94,6l-215,287c-119,158 -216,289 -216,291c0,2 23,28 50,58c135,145 227,342 246,526c4,35 8,63 10,63c1,0 122,-58 268,-129l266,-130l-10,-26c-5,-14 -10,-55 -10,-90c0,-186 150,-337 334,-337c139,0 248,67 308,190c29,59 33,76 33,147c0,71 -4,89 -33,148c-87,177 -294,241 -473,145l-58,-30l-316,153c-175,84 -318,158 -320,164c-61,240 -131,373 -269,510c-122,121 -261,200 -435,247c-114,32 -334,31 -451,0c-271,-74 -487,-248 -611,-494c-46,-92 -84,-217 -94,-310l-7,-67l-231,-198c-127,-109 -240,-206 -252,-215c-20,-16 -24,-15 -86,29c-35,24 -89,57 -119,72c-89,45 -158,66 -317,97l-23,4v218v218l54,23c67,27 142,100 172,166c118,257 -113,539 -389,474zM1009,4932c19,-9 48,-34 65,-55c27,-33 31,-47 31,-96c0,-71 -31,-122 -91,-151c-141,-69 -290,70 -230,214c37,89 143,130 225,88zM3187,4921c273,-78 476,-288 544,-561c18,-71 21,-104 16,-210c-7,-188 -60,-328 -172,-460c-68,-79 -71,-80 -78,-10c-14,131 -96,218 -228,240c-46,8 -158,11 -327,8c-241,-3 -260,-5 -308,-27c-91,-40 -147,-119 -159,-225l-7,-58l-30,28c-75,72 -151,201 -189,324c-20,64 -23,96 -23,215c0,125 3,149 27,220c96,285 322,483 612,535c77,14 240,4 322,-19zM4871,3897c39,-26 79,-97 79,-142c0,-40 -38,-114 -71,-138c-55,-40 -144,-40 -198,0c-50,38 -66,70 -66,136c0,70 24,114 79,148c45,28 133,26 177,-4zM1060,3829c299,-48 544,-272 621,-568c26,-98 28,-267 5,-366c-23,-98 -85,-221 -157,-309c-33,-42 -65,-76 -70,-76c-5,0 -9,20 -9,44c0,99 -57,188 -148,233l-57,28h-305c-297,0 -306,-1 -355,-23c-27,-13 -63,-35 -79,-50c-43,-41 -76,-118 -76,-179c0,-29 -4,-53 -9,-53c-5,0 -28,21 -50,46c-173,197 -238,459 -176,706c9,35 37,106 63,158c39,80 61,110 137,186c184,186 416,264 665,223zM3301,3724c21,-23 24,-36 27,-124l4,-99l-34,-17c-72,-38 -153,-56 -273,-61c-129,-5 -211,7 -317,47l-58,21v105c0,98 2,107 25,129l24,25h289h289zM4285,2707c146,-41 255,-105 360,-212c106,-109 170,-228 202,-378c21,-101 13,-289 -17,-377c-43,-127 -107,-235 -183,-308l-34,-33l-6,55c-11,106 -67,188 -157,230c-43,20 -62,21 -350,21c-343,0 -355,-2 -428,-69c-53,-48 -78,-99 -87,-179l-7,-58l-30,28c-17,15 -52,59 -78,96c-214,303 -178,718 85,981c108,109 261,189 413,216c64,12 255,4 317,-13zM1237,2631c34,-23 43,-55 43,-154v-92l-57,-23c-91,-35 -181,-52 -279,-52c-109,0 -174,11 -271,46l-73,26v102c0,115 10,139 63,155c18,5 149,9 292,8c208,-2 264,-5 282,-16zM2651,2617c81,-55 102,-167 45,-241c-35,-47 -78,-68 -136,-68c-92,0 -161,64 -167,155c-7,101 64,177 167,177c43,0 65,-6 91,-23zM2230,1684c203,-45 409,-211 504,-406c75,-152 99,-353 62,-511c-29,-125 -121,-292 -204,-370l-29,-28l-5,63c-9,105 -64,185 -158,227c-42,19 -65,21 -346,21c-242,0 -310,-3 -344,-15c-103,-36 -170,-130 -170,-239l-1,-61l-62,66c-221,236 -258,612 -88,898c172,290 503,430 841,355zM4407,1507c27,-26 28,-31 28,-130v-102l-59,-23c-154,-61 -358,-68 -510,-18c-127,43 -119,33 -114,146c6,161 6,161 360,157l268,-2zM420,1087c116,-61 118,-230 5,-294c-162,-92 -335,114 -212,254c58,66 132,80 207,40zM2357,486c27,-23 28,-29 31,-129l4,-104l-54,-21c-182,-73 -409,-74 -579,-1l-49,21v103c0,97 1,104 26,129l27,26h283h283zM3926,485c101,-59 111,-193 21,-272c-64,-56 -150,-56 -214,0c-65,57 -79,127 -42,204c42,87 149,118 235,68z"></path><path d="M2905,4766c-69,-17 -106,-38 -156,-89c-66,-65 -92,-126 -97,-222c-5,-110 21,-179 97,-256c148,-148 388,-129 513,40c42,58 60,117 61,201c1,88 -27,161 -88,229c-76,83 -219,126 -330,97zM3056,4591c128,-58 134,-232 11,-302c-31,-17 -50,-20 -93,-17c-90,8 -144,62 -152,152c-11,132 114,222 234,167z"></path><path d="M852,3655c-102,-24 -193,-108 -233,-213c-28,-76 -23,-185 12,-257c31,-64 101,-134 164,-165c42,-21 65,-25 140,-25c76,0 98,4 147,27c217,102 263,393 87,554c-50,45 -82,62 -146,79c-68,18 -100,18 -171,0zM1038,3463c71,-58 89,-131 51,-210c-59,-122 -237,-124 -299,-3c-45,88 -6,194 85,236c46,22 121,11 163,-23z"></path><path d="M4017,2550c-95,-24 -184,-97 -227,-185c-35,-72 -40,-189 -10,-267c64,-171 264,-262 434,-198c192,73 276,302 178,483c-68,127 -236,201 -375,167zM4170,2368c103,-53 126,-175 49,-263c-36,-41 -86,-59 -146,-52c-52,6 -88,29 -121,78c-20,29 -23,44 -20,94c5,74 33,119 92,146c54,25 93,24 146,-3z"></path><path d="M1992,1528c-74,-11 -142,-49 -195,-108c-119,-132 -117,-328 5,-456c166,-175 453,-128 555,91c36,79 39,194 5,268c-68,151 -211,230 -370,205zM2149,1331c37,-27 70,-91 71,-136c0,-40 -38,-114 -71,-138c-55,-40 -144,-40 -198,0c-51,39 -66,70 -66,138c0,71 17,103 76,143c46,32 138,28 188,-7z"></path></g></g></g></svg>