<svg version="1.1" xmlns="http://www.w3.org/2000/svg" xmlns:xlink="http://www.w3.org/1999/xlink" width="512.000000pt" height="512.000000pt" viewBox="0,0,256,256"><g fill="#339af0" fill-rule="nonzero" stroke="none" stroke-width="1" stroke-linecap="butt" stroke-linejoin="miter" stroke-miterlimit="10" stroke-dasharray="" stroke-dashoffset="0" font-family="none" font-weight="none" font-size="none" text-anchor="none" style="mix-blend-mode: normal"><g transform="translate(0,0.05354) scale(0.5,0.5)"><g transform="translate(0,512) scale(0.1,-0.1)"><path d="M3640,4962c-19,-9 -45,-32 -57,-51l-23,-34v-941v-941l-60,3l-60,4v273c0,150 -3,288 -7,306c-5,26 -40,68 -152,182c-80,82 -158,155 -173,163c-16,8 -56,14 -98,14h-70v174c0,160 -2,175 -21,200c-26,33 -79,36 -109,6c-19,-19 -20,-33 -20,-200c0,-165 -1,-180 -17,-180c-29,0 -81,-37 -98,-69c-13,-26 -15,-90 -15,-451v-420h-65h-65v806c0,892 3,854 -64,895c-26,16 -51,19 -148,19c-105,0 -120,-2 -138,-20c-22,-22 -26,-60 -10,-90c14,-26 63,-40 141,-40h69v-818v-818l-39,-38c-22,-21 -52,-66 -68,-100c-48,-105 -37,-246 28,-337l20,-28l-29,-15c-42,-22 -91,-65 -122,-107l-26,-37l-35,46c-19,26 -57,62 -85,81l-51,33l36,70c33,64 36,78 36,152c0,72 -4,89 -33,148c-37,75 -100,138 -172,172c-65,30 -215,30 -282,-1c-66,-30 -143,-106 -173,-169c-49,-103 -42,-237 15,-327l29,-46l-44,-25c-52,-31 -120,-106 -136,-150c-11,-29 -18,-34 -69,-44c-65,-14 -164,-73 -196,-118c-88,-121 -100,-261 -34,-388c17,-33 27,-62 21,-64c-28,-9 -103,-67 -126,-97c-56,-74 -65,-112 -90,-377c-26,-277 -24,-303 28,-342c16,-12 50,-23 80,-26l52,-5l3,-252l2,-253h-385h-385v340v341l-25,24c-31,32 -69,32 -100,0l-25,-24v-391v-391l25,-24l24,-25h2511h2511l24,25l25,24v1159v1159l-23,34c-37,55 -76,69 -199,69h-108v279v280l-26,20c-35,27 -57,26 -91,-3l-28,-24l-3,-309c-2,-169 0,-318 3,-331c3,-12 14,-31 25,-42c18,-18 34,-20 160,-20h140v-1085v-1085h-355h-355l2,253l3,252l50,5c91,10 125,48 125,142c0,104 -39,464 -56,511c-19,56 -108,158 -154,177c-36,15 -37,22 -9,62c52,72 64,207 28,303c-40,106 -157,204 -265,221c-35,5 -43,11 -57,43c-23,52 -81,117 -131,146l-42,25l35,72c32,65 36,80 36,152c-1,92 -27,163 -84,228l-31,36v956v956h205h205v-170c0,-102 4,-179 11,-193c18,-40 50,-47 199,-47h140v-140c0,-80 5,-149 11,-163c15,-32 49,-47 109,-47h49l3,-306l3,-306l28,-24c34,-29 56,-30 91,-3l26,20v337c0,317 -1,339 -20,369c-23,39 -67,63 -115,63h-35v125c0,142 -10,173 -63,205c-27,17 -51,20 -159,20h-128v156c0,177 -9,207 -74,238c-53,25 -506,24 -556,-2zM3167,3668l123,-123v-297v-297l-49,-46c-119,-111 -143,-303 -55,-437l24,-38l-29,-14c-41,-22 -90,-65 -121,-107l-26,-37l-35,46c-19,26 -57,62 -84,80l-51,33l36,71c31,65 35,80 35,152c-1,94 -28,166 -89,233l-36,40v432v431h117h118zM1786,2831c47,-21 86,-68 104,-124c38,-119 -60,-247 -189,-247c-87,0 -146,37 -182,115c-76,165 98,332 267,256zM2676,2831c101,-46 142,-183 85,-278c-62,-101 -211,-126 -298,-50c-175,154 1,424 213,328zM3566,2831c73,-33 122,-124 110,-205c-8,-54 -35,-96 -82,-132c-34,-26 -45,-29 -115,-29c-71,0 -80,2 -116,31c-121,96 -105,265 32,337c41,22 121,21 171,-2zM1931,2278c39,-23 89,-75 77,-82c-42,-23 -119,-82 -135,-104c-57,-77 -68,-112 -68,-218c0,-94 2,-105 33,-165c18,-35 29,-65 23,-67c-32,-11 -102,-68 -130,-107l-33,-46l-18,28c-21,34 -92,100 -126,115c-13,6 -24,14 -24,18c0,3 15,33 33,66c30,55 32,66 32,154c0,76 -4,104 -22,142c-25,55 -91,129 -142,160c-20,12 -37,23 -39,24c-9,6 21,46 52,69c48,37 100,44 281,42c154,-2 162,-4 206,-29zM2817,2282c44,-23 95,-83 76,-89c-23,-8 -101,-69 -125,-98c-59,-70 -73,-113 -73,-221c0,-94 2,-105 33,-165c18,-35 29,-65 23,-67c-32,-11 -102,-68 -130,-107l-33,-46l-18,28c-21,34 -92,100 -126,115c-29,13 -30,22 -5,57c55,77 66,227 23,323c-24,56 -97,137 -147,164c-19,10 -35,21 -35,25c0,15 44,61 73,76c52,27 94,32 262,29c142,-2 165,-5 202,-24zM3707,2282c44,-23 95,-83 76,-89c-23,-8 -101,-69 -125,-98c-59,-70 -73,-113 -73,-220c0,-91 3,-105 30,-160c17,-33 31,-63 33,-67c2,-3 -6,-9 -17,-13c-30,-9 -91,-61 -124,-106l-30,-40l-17,28c-21,34 -92,100 -126,115c-29,13 -30,22 -5,56c53,75 66,210 30,307c-23,62 -98,151 -153,180c-20,11 -36,22 -36,26c0,15 44,61 73,76c52,27 94,32 262,29c142,-2 165,-5 202,-24zM1328,2055c178,-75 157,-325 -31,-376c-50,-13 -118,2 -165,37c-87,67 -99,207 -24,288c57,60 146,81 220,51zM2218,2055c109,-46 154,-172 99,-276c-95,-179 -367,-112 -367,90c0,61 13,97 48,135c57,60 146,81 220,51zM3108,2055c109,-46 154,-172 99,-276c-95,-179 -367,-112 -367,90c0,61 13,97 48,135c57,60 146,81 220,51zM4010,2048c70,-36 103,-86 108,-161c3,-51 -1,-70 -20,-107c-96,-180 -368,-114 -368,89c0,61 13,97 48,135c61,65 155,83 232,44zM1473,1504c42,-22 76,-53 94,-87c12,-23 52,-361 53,-448c0,-13 -13,-18 -66,-21c-58,-4 -70,-8 -90,-32l-24,-27v-288c0,-210 -3,-290 -12,-299c-7,-7 -31,-12 -55,-12h-43v305v306l-25,24c-30,30 -64,32 -99,4l-26,-20v-310v-310l-52,3l-53,3l-5,302c-5,296 -5,303 -27,325c-18,17 -37,23 -88,26c-77,5 -71,-20 -50,224c18,204 25,236 68,285c51,58 70,62 280,63c154,0 194,-3 220,-16zM2363,1504c42,-22 76,-53 94,-88c13,-24 51,-349 53,-442c0,-20 -6,-22 -66,-26c-58,-4 -70,-8 -90,-32l-24,-27v-293c0,-327 5,-306 -71,-306h-39v305v306l-25,24c-13,14 -36,25 -50,25c-14,0 -37,-11 -50,-25l-25,-24v-306v-306l-52,3l-53,3l-5,302c-5,296 -5,303 -27,325c-18,17 -37,23 -88,26c-77,5 -71,-19 -50,225c18,204 26,236 68,284c51,58 70,62 280,63c154,0 194,-3 220,-16zM3253,1504c42,-22 76,-53 94,-88c13,-24 51,-349 53,-442c0,-20 -6,-22 -66,-26c-58,-4 -70,-8 -90,-32l-24,-27v-293c0,-327 5,-306 -71,-306h-39v305v306l-25,24c-13,14 -36,25 -50,25c-14,0 -37,-11 -50,-25l-25,-24v-306v-306l-52,3l-53,3l-5,302c-5,296 -5,303 -27,325c-18,17 -37,23 -88,26c-77,5 -71,-19 -50,225c18,204 26,236 68,284c51,58 70,62 280,63c154,0 194,-3 220,-16zM4177,1484c67,-55 74,-75 94,-292c10,-108 19,-207 19,-218c0,-20 -7,-22 -66,-26c-58,-4 -70,-8 -90,-32l-24,-27v-293c0,-327 5,-306 -71,-306h-39v305v306l-25,24c-13,14 -36,25 -50,25c-14,0 -37,-11 -50,-25l-25,-24v-306v-306l-52,3l-53,3l-5,302c-5,296 -5,303 -27,325c-18,17 -37,23 -88,26c-56,4 -65,7 -65,24c0,57 32,378 41,411c12,45 62,105 104,123c23,10 80,13 232,11l201,-2zM1798,795c9,-3 12,-63 12,-255v-250h-110h-110l2,253l3,252l50,5c49,5 128,2 153,-5zM2688,795c9,-3 12,-63 12,-255v-250h-110h-110l2,253l3,252l50,5c49,5 128,2 153,-5zM3578,795c9,-3 12,-63 12,-255v-250h-110h-110l2,253l3,252l50,5c49,5 128,2 153,-5z"></path><path d="M535,4885l-25,-24v-956v-955h-72c-55,0 -81,-5 -105,-20c-62,-37 -63,-46 -63,-395v-315h-82c-95,0 -134,-17 -168,-72c-19,-32 -20,-52 -20,-450c0,-229 3,-424 6,-433c4,-8 20,-23 36,-31c25,-13 35,-13 59,-3c17,6 34,20 39,30c6,10 10,179 10,413v396h100c109,0 142,10 159,47c7,16 11,133 11,353v328l101,4c92,3 103,5 120,27c18,22 19,50 19,780v756l210,-210l210,-210v-383v-383l25,-24c24,-24 27,-25 185,-25c158,0 161,1 185,25c24,23 25,29 25,165v140h89c143,0 131,-52 131,581v529h74c83,0 132,14 146,40c16,30 12,68 -10,90c-18,18 -33,20 -142,20c-106,0 -128,-3 -156,-20c-62,-38 -62,-37 -62,-589v-499l-65,-4c-121,-8 -155,-56 -155,-220v-108h-60h-60v540v541l-25,24c-31,32 -74,33 -103,2c-20,-21 -22,-34 -22,-123v-99l-210,210l-210,210v138c0,133 -1,139 -25,162c-13,14 -36,25 -50,25c-14,0 -37,-11 -50,-25z"></path></g></g></g></svg>